<?xml version="1.0" encoding="UTF-8"?>
<svg width="256px" height="256px" viewBox="0 0 256 256" version="1.1" xmlns="http://www.w3.org/2000/svg" xmlns:xlink="http://www.w3.org/1999/xlink">
    <!-- Generator: Sketch 59.1 (86144) - https://sketch.com -->
    <title>IvyLeaf_256x256</title>
    <desc>Created with Sketch.</desc>
    <defs>
        <path d="M213.230769,196.535094 C208.285741,169.137991 193.112169,144.770301 172.993569,136.787916 C199.469507,109.476478 200.823456,64.9776018 199.60957,43.3356039 C198.854782,34.2162158 197.158455,32.9234588 190.159158,32.892308 C170.752549,33.5425803 131.748688,40.9837207 103.074527,69.1206543 C94.4995137,56.1930845 70.4241128,39.4145006 42.0612051,44.0364962 C29.5293909,77.53915 44.4228354,111.041804 47.3369394,111.041804 C38.7619259,114.347679 30.5176184,120.285795 23.2615385,129.525892 C51.6244461,183.989121 79.3298323,161.875968 105.381688,151.64294 C98.6352847,193.844446 98.3785012,210.868342 143.97314,234.492308 C152.874969,221.288275 152.874969,204.790048 150.898514,199.506099 C162.43821,207.426182 190.143596,210.397187 213.230769,196.535094" id="path-1"></path>
        <filter x="-8.4%" y="-4.0%" width="116.8%" height="115.9%" filterUnits="objectBoundingBox" id="filter-2">
            <feOffset dx="0" dy="8" in="SourceAlpha" result="shadowOffsetOuter1"></feOffset>
            <feGaussianBlur stdDeviation="4" in="shadowOffsetOuter1" result="shadowBlurOuter1"></feGaussianBlur>
            <feColorMatrix values="0 0 0 0 0.105882353   0 0 0 0 0.105882353   0 0 0 0 0.105882353  0 0 0 0.32 0" type="matrix" in="shadowBlurOuter1"></feColorMatrix>
        </filter>
    </defs>
    <g id="IvyLeaf_256x256" stroke="none" stroke-width="1" fill="none" fill-rule="evenodd">
        <path d="M254,128 C254,58.4111524 197.589721,2 128.001952,2 C58.4141819,2 2,58.4111524 2,128 C2,197.588848 58.4141819,254 128.001952,254 C197.589721,254 254,197.588848 254,128" id="Fill-1-Copy" stroke="#D1D1D1" stroke-width="4" fill="#FFFFFF"></path>
        <g id="Logo-/-Icon" transform="translate(2.000000, 2.000000)">
            <path d="M252,126 C252,56.4111524 195.589721,0 126.001952,0 C56.4141819,0 0,56.4111524 0,126 C0,195.588848 56.4141819,252 126.001952,252 C195.589721,252 252,195.588848 252,126" id="Background" fill="#FFFFFF"></path>
            <g id="Leaf-Color">
                <use fill="black" fill-opacity="1" filter="url(#filter-2)" xlink:href="#path-1"></use>
                <use fill="#FFFFFF" fill-rule="evenodd" xlink:href="#path-1"></use>
            </g>
            <path d="M213.230769,196.535094 C208.285741,169.137991 193.112169,144.770301 172.993569,136.787916 C199.469507,109.476478 200.823456,64.9776018 199.60957,43.3356039 C198.854782,34.2162158 197.158455,32.9234588 190.159158,32.892308 C170.752549,33.5425803 131.748688,40.9837207 103.074527,69.1206543 C94.4995137,56.1930845 70.4241128,39.4145006 42.0612051,44.0364962 C29.5293909,77.53915 44.4228354,111.041804 47.3369394,111.041804 C38.7619259,114.347679 30.5176184,120.285795 23.2615385,129.525892 C51.6244461,183.989121 79.3298323,161.875968 105.381688,151.64294 C98.6352847,193.844446 98.3785012,210.868342 143.97314,234.492308 C152.874969,221.288275 152.874969,204.790048 150.898514,199.506099 C162.43821,207.426182 190.143596,210.397187 213.230769,196.535094" id="Leaf-Color" fill="#C7D426"></path>
            <path d="M210.988297,194.063593 C200.223813,189.758408 191.733515,185.472442 184.39003,181.22876 C190.897703,175.147685 197.494788,170.308196 201.273437,168.847508 C201.51835,168.755254 201.646637,168.474648 201.545562,168.224794 C201.448375,167.978783 201.172362,167.863466 200.915787,167.95572 C196.993301,169.470222 190.174628,174.475 183.51923,180.721363 C177.116519,176.985077 171.569059,173.279542 166.11101,169.635511 C164.318873,168.436209 162.538399,167.244595 160.742374,166.068357 C164.637648,164.869056 168.564022,162.56655 172.365996,160.337079 C178.974744,156.458569 185.221955,152.795317 189.653703,156.11646 C189.863628,156.285592 190.174628,156.235621 190.334015,156.024206 C190.49729,155.812791 190.454528,155.512965 190.236828,155.351521 C185.268605,151.630611 178.757044,155.462994 171.868396,159.506794 C167.879822,161.851582 163.755186,164.273249 159.7394,165.357233 C159.719962,165.361077 159.704412,165.368765 159.688862,165.376452 C152.800214,160.882915 145.623891,156.523915 136.643769,152.372486 C148.730003,142.858796 158.60425,135.728333 166.589173,136.627809 C166.845748,136.673936 167.094547,136.470208 167.129535,136.204978 C167.160635,135.943592 166.970148,135.701425 166.70191,135.674518 C158.254375,134.6751 148.096341,142.11692 135.656344,151.918904 C128.573322,148.701547 120.366812,145.611039 110.32929,142.662756 C116.829188,132.730079 124.234873,123.108758 132.394733,113.21452 C153.328914,126.768166 178.387732,114.267753 186.011117,103.68161 C186.166617,103.466351 186.119967,103.166525 185.898379,103.012769 C185.680679,102.855168 185.377454,102.905139 185.221955,103.128086 C177.796832,113.429779 153.414439,125.595772 133.012845,112.461113 C134.163545,111.073459 135.329795,109.674274 136.507707,108.275089 C136.519369,108.263557 136.527144,108.255869 136.531032,108.244337 C139.613818,104.58493 142.789905,100.867864 146.063179,97.0777632 C146.063179,97.0777632 146.067066,97.0777632 146.067066,97.0777632 C155.346526,95.451787 157.698463,99.8492262 157.791763,100.037578 C157.92005,100.275901 158.2155,100.379687 158.444863,100.252837 C158.685887,100.133676 158.783075,99.8453823 158.66645,99.6070595 C158.565375,99.403332 156.116251,94.7483504 147.031166,95.9553399 C149.10709,93.5490488 151.218002,91.1120065 153.367789,88.6365249 C153.562164,88.4135778 153.748764,88.1944746 153.943139,87.9676836 C170.597184,87.9715276 180.751331,88.5173635 181.933131,88.9209747 C182.189705,89.1977366 182.77283,88.997853 182.77283,88.5942419 C182.77283,88.040718 182.77283,87.7062974 174.344733,87.3565011 C169.147147,87.1412418 162.231286,87.0182365 154.778951,87.0067048 C159.5839,81.4637787 164.622098,75.6402469 169.843009,69.4938261 C183.340405,65.1309821 191.624665,68.1138605 192.526565,68.7827018 C192.755927,69.1209663 193.42069,68.955678 193.42069,68.5213155 C193.42069,68.2368658 193.195215,68.0715774 193.117465,68.0177626 C192.032852,67.2451356 184.009055,64.319916 170.997596,68.1292362 C178.943644,58.7462386 187.293991,48.6059897 195.881476,37.5470451 C196.044751,37.3356297 196.005876,37.0319604 195.792064,36.870516 C195.578251,36.7052276 195.275027,36.7475107 195.107864,36.958926 C187.834354,46.3342357 180.720231,55.048392 173.88212,63.2051805 C173.575008,60.3222439 172.373771,57.9082651 171.114221,55.3712809 C169.403722,51.9271327 167.63491,48.3715109 167.63491,43.0169367 C167.63491,42.7517066 167.41721,42.5364473 167.148972,42.5364473 C166.876848,42.5364473 166.663035,42.7517066 166.663035,43.0169367 C166.663035,48.594458 168.564022,52.4191538 170.243422,55.7941116 C171.604046,58.5386672 172.890808,61.1294662 172.984108,64.2776329 C169.057734,68.9441462 165.228548,73.4299955 161.504324,77.7467125 C161.504324,77.7467125 161.504324,77.7467125 161.500437,77.7467125 C156.384488,77.2546914 155.439826,70.9622018 154.347439,63.6741382 C153.356127,57.0741354 152.333714,50.2511855 147.991378,46.595622 C147.785341,46.4188019 147.474341,46.4457093 147.307178,46.6494368 C147.132241,46.8531643 147.155566,47.1529897 147.361603,47.3259659 C151.42404,50.7508945 152.423127,57.3931804 153.387227,63.8163631 C154.448514,70.9006992 155.459263,77.6160194 160.761812,78.6115935 C157.98225,81.8327946 155.268776,84.9655857 152.629164,88.0099667 C147.089478,94.3985541 141.779155,100.525755 136.725407,106.510732 C136.915894,100.741015 135.13542,92.6188213 131.072983,86.3532392 C131.069096,86.3032683 131.061321,86.2571413 131.045771,86.2071704 C127.679197,76.3936543 130.905821,67.2681991 135.473632,56.3630111 C135.578594,56.1170005 135.458082,55.8363946 135.21317,55.7326089 C134.956595,55.636511 134.680582,55.7518285 134.579507,55.9939952 C130.307146,66.1880589 127.193259,74.8599321 129.409134,84.0584217 C126.41576,80.3721068 122.454398,77.6736781 117.443412,77.0932469 C117.175175,77.0740273 116.93415,77.2508474 116.90305,77.5122337 C116.87195,77.7774639 117.062437,78.0157866 117.330675,78.0465379 C131.115746,79.6494507 136.573794,98.1540595 135.675782,107.760004 C125.945372,119.341721 117.194612,130.431417 109.641202,141.943944 C106.165778,134.8327 102.340479,127.717613 98.1108807,120.502584 C102.274392,109.720401 103.654454,102.343927 104.871241,95.8323346 C106.103578,89.2400196 107.168753,83.5471809 110.834664,76.136112 C110.951289,75.8977892 110.850214,75.6094956 110.609189,75.4941781 C110.372052,75.3711728 110.076602,75.4749585 109.959977,75.7132813 C106.235753,83.2435116 105.162804,88.997853 103.918804,95.6555145 C102.733117,101.978755 101.399705,109.124594 97.4811059,119.433975 C93.4381071,112.603338 89.0257959,105.668914 84.1858599,98.5615145 C88.854746,97.8657658 92.4118074,90.6276731 92.4118074,81.5214375 C92.4118074,81.2562073 92.1941075,81.0409481 91.92587,81.0409481 C91.6576326,81.0409481 91.4399327,81.2562073 91.4399327,81.5214375 C91.4399327,90.3355355 87.9178587,97.5198135 83.5638601,97.6543505 C81.3052232,94.3562711 78.9532864,91.0197525 76.5041622,87.6371069 C81.5268107,81.225456 86.2423467,75.0636596 88.2444086,62.0097228 C88.2871711,61.7483366 88.1044587,61.502326 87.8362213,61.4638868 C87.5602089,61.4062281 87.3230714,61.6061117 87.2841964,61.8674979 C85.340447,74.5178236 80.7881859,80.587366 75.9132623,86.8183529 C72.9315507,82.7168952 69.8060017,78.542403 66.5249527,74.2871887 C66.8864901,73.7951675 67.236365,73.3223659 67.5784649,72.861096 C70.579614,68.8365166 72.9471007,65.6537546 74.7625627,57.6007518 C74.8208752,57.3393656 74.6537127,57.0818232 74.3932503,57.0241645 C74.1250129,56.9626619 73.8723255,57.1317941 73.8101255,57.3893365 C72.045201,65.2501435 69.7282517,68.3560272 66.7970776,72.2921966 C66.5055152,72.680432 66.2100653,73.0763553 65.9107279,73.4876543 C59.2980923,64.9387864 52.0673445,56.0401222 44.1290719,46.6801881 C43.9541344,46.4726167 43.647022,46.4495532 43.4448721,46.6186855 C43.2388347,46.7916617 43.2116222,47.0914871 43.3865596,47.2952146 C56.4757682,62.7362228 67.6484398,76.9125829 77.2699994,90.3547551 C63.830916,91.8731017 50.53567,87.225808 44.1990469,81.7366967 C41.3689477,79.2881226 39.8722607,76.6973236 39.8722607,74.2525934 C39.8722607,73.9873633 39.6545607,73.772104 39.3863233,73.772104 C39.1219734,73.772104 38.900386,73.9873633 38.900386,74.2525934 C38.900386,76.9856173 40.513698,79.8224269 43.5614971,82.4593528 C50.1430326,88.1598794 64.0291784,92.9878372 77.9036618,91.2426996 C82.2965354,97.4083399 86.3589717,103.420224 90.1337331,109.332166 C80.2167236,111.972935 72.6283258,109.251443 72.2201385,109.093843 C71.936351,108.905491 71.4659637,109.128438 71.4659637,109.49361 C71.4659637,109.643523 71.5437137,109.793435 71.6642261,109.881845 C72.130726,110.231642 80.3488985,113.030012 90.6702079,110.181671 C97.7221308,121.290586 103.747754,132.057393 108.988102,142.824201 C108.999765,142.847264 109.015315,142.866484 109.026977,142.889547 C108.890915,143.097119 108.75874,143.30469 108.622678,143.516105 C99.9107926,137.996243 87.3930464,134.559782 74.7120252,132.418722 C72.8071508,124.30806 67.158615,118.065541 58.1590552,108.832457 C57.9763427,108.640261 57.6692303,108.636417 57.4709679,108.820925 C57.2804804,109.005433 57.2727054,109.309102 57.4593054,109.497454 C66.1711903,118.430713 71.6992136,124.408002 73.6701755,132.245745 C49.9486576,128.378766 26.0172148,128.993793 25.6556774,129.005325 C25.38744,129.024544 25.1852901,129.251335 25.2,129.516565 C25.2163901,129.781796 25.48074,129.970147 25.7178774,129.966304 C29.2244014,129.743356 43.6120345,129.735669 60.0639296,131.469274 C59.5002423,132.487912 58.8315925,133.675682 58.1162927,134.951862 C56.0753558,138.584362 53.5445941,143.089431 51.9895945,146.252973 C49.9680951,146.637365 48.3664456,147.294674 46.951396,147.875105 C45.2642216,148.56701 43.7908595,149.170505 42.03371,149.170505 C41.9093101,149.170505 41.8082351,149.151285 41.6682851,149.162817 C41.4078227,149.162817 41.1940103,149.366545 41.1823478,149.620243 C41.1706853,149.889317 41.3767227,150.112264 41.6449601,150.123796 C43.794747,150.208362 45.501359,149.512613 47.3207084,148.766894 C48.7163205,148.190307 50.1546951,147.602187 51.9895945,147.233172 C52.1450945,148.313312 52.3316944,151.888153 52.3316944,157.707841 C52.3316944,157.973071 52.5532819,158.188331 52.8176318,158.188331 C53.0858692,158.188331 53.3035691,157.973071 53.3035691,157.707841 C53.3035691,150.331367 53.1091942,147.686754 52.8331818,146.733463 C54.3765188,143.58914 56.9189431,139.064851 58.9676549,135.416976 C59.7684797,133.994727 60.5071045,132.676264 61.1096668,131.580748 C65.382028,132.049706 69.7826767,132.641669 74.1522254,133.372013 C74.2105379,133.395076 74.2571878,133.414296 74.3427128,133.406608 C76.6013496,133.787155 78.8444365,134.206142 81.0641983,134.671256 C76.0376623,136.539399 72.9004508,141.571084 69.8526517,146.452857 L69.0479394,147.740568 C68.904102,147.967359 68.9740769,148.263341 69.2034394,148.405566 C69.4328018,148.543947 69.7282517,148.4786 69.8720892,148.251809 L70.6806889,146.95641 C74.1172379,141.448079 77.3632994,136.247261 83.0545977,135.097931 C92.6644948,137.235148 101.59408,140.206494 108.101753,144.327172 C107.479753,145.303526 106.865528,146.283724 106.259078,147.267767 C106.119128,147.498402 106.189103,147.794383 106.422353,147.92892 C106.647828,148.063457 106.947166,147.998111 107.087115,147.77132 C107.662465,146.833404 108.24559,145.903177 108.840377,144.972949 C113.241026,149.232008 116.813638,154.667304 119.876987,160.905979 C117.077987,165.791595 113.614226,168.578434 110.554764,171.046228 C106.846091,174.029106 103.646679,176.604529 103.646679,181.774596 C103.646679,182.039826 103.864379,182.255085 104.132616,182.255085 C104.400854,182.255085 104.618554,182.039826 104.618554,181.774596 C104.618554,177.061955 107.506965,174.736386 111.168989,171.788103 C114.174026,169.366437 117.560037,166.637257 120.382361,161.955368 C121.517511,164.353971 122.582686,166.85636 123.593436,169.454847 C123.605098,169.504818 123.624536,169.554788 123.651748,169.600915 C124.915185,172.856712 126.096985,176.254733 127.228247,179.764228 C125.583835,186.106688 121.649686,189.493178 117.839937,192.76435 C114.360626,195.75876 111.067914,198.587882 110.088265,203.354337 C110.03384,203.615723 110.20489,203.869421 110.469239,203.919392 C110.721927,203.977051 110.986277,203.807919 111.040702,203.550376 C111.954264,199.102966 115.122576,196.37763 118.477487,193.49085 C121.941249,190.507971 125.832635,187.163765 127.753059,181.409424 C129.549084,187.098418 131.228483,193.037268 132.935095,199.072215 C133.304408,200.371458 133.67372,201.67839 134.04692,202.989165 C129.413021,203.315898 125.719897,208.343739 125.719897,214.478628 C125.719897,214.743858 125.941485,214.959117 126.205835,214.959117 C126.474072,214.959117 126.691772,214.743858 126.691772,214.478628 C126.691772,208.758882 130.093334,204.088525 134.315157,203.934768 C136.853694,212.833432 139.536068,221.855102 142.78213,230.304028 C142.85988,230.500067 143.038705,230.615385 143.236967,230.615385 C143.29528,230.615385 143.353592,230.603853 143.408017,230.584634 C143.664592,230.49238 143.788992,230.211774 143.691805,229.965763 C139.866506,220.010022 136.818707,209.231683 133.871982,198.810829 C130.995233,188.643672 128.192347,178.734058 124.786898,169.843082 C134.455107,170.000683 142.202892,173.344889 142.202892,177.434815 C142.202892,177.700045 142.416705,177.915304 142.68883,177.915304 C142.957067,177.915304 143.174767,177.700045 143.174767,177.434815 C143.174767,172.683736 134.960482,168.955138 124.40981,168.874415 C120.518424,158.93405 115.826213,150.327523 109.369077,144.146507 C109.509027,143.931248 109.64509,143.715989 109.781152,143.504574 L109.812252,143.516105 C126.579035,148.413254 138.229869,153.74092 148.069128,159.356881 C148.224628,160.448553 150.514365,177.111926 146.712391,189.658466 C146.634641,189.912164 146.782366,190.177395 147.038941,190.258117 C147.311066,190.31962 147.567641,190.185082 147.645391,189.935228 C151.132477,178.430389 149.581365,163.562124 149.130415,159.964219 C152.885739,162.139876 156.384488,164.361659 159.821037,166.614193 C159.094075,174.571098 161.224424,180.071741 164.540461,184.711347 C163.471399,185.468598 162.927149,186.548738 162.344024,187.690381 C161.679262,189.008844 160.991174,190.365746 159.3973,191.361321 C159.171825,191.499702 159.10185,191.795683 159.245687,192.022474 C159.389525,192.245421 159.69275,192.314612 159.914337,192.172387 C161.737574,191.038432 162.522849,189.489334 163.214824,188.117056 C163.762961,187.044604 164.237236,186.106688 165.111923,185.491662 C167.082885,188.093992 169.411497,190.446469 171.782871,192.845072 C173.264008,194.336511 174.787908,195.881765 176.269045,197.515429 C176.440095,197.719157 176.751095,197.730688 176.953245,197.553868 C177.155394,197.377048 177.174832,197.073379 176.99212,196.877339 C175.49932,195.224456 173.967645,193.671514 172.478733,192.172387 C165.695048,185.318686 159.813262,179.379836 160.746262,167.225376 C162.355686,168.286296 163.957336,169.354905 165.56676,170.431201 C177.497494,178.399638 189.836416,186.637149 210.622872,194.955382 C210.883334,195.055323 211.155459,194.940006 211.256534,194.690151 C211.357609,194.444141 211.237097,194.163535 210.988297,194.063593" id="Leaf-Structure" stroke="#FFFFFF" stroke-width="0.4" fill="#FFFFFF"></path>
        </g>
    </g>
</svg>